<svg fill="none" height="29" viewBox="0 0 29 29" width="29" xmlns="http://www.w3.org/2000/svg"><path d="m12.47 17.11-3.1175-3.1175c-.26583-.2658-.60417-.3988-1.015-.3988s-.74917.133-1.015.3988-.39875.6042-.39875 1.015.13292.7492.39875 1.015l4.1325 4.1325c.29.29.6283.435 1.015.435s.725-.145 1.015-.435l8.1925-8.1925c.2658-.2658.3987-.6042.3987-1.015s-.1329-.7492-.3987-1.015c-.2658-.26583-.6042-.39875-1.015-.39875s-.7492.13292-1.015.39875zm2.03 11.89c-2.0058 0-3.8908-.3809-5.655-1.1426-1.76417-.7617-3.29875-1.7946-4.60375-3.0987-1.305-1.305-2.33788-2.8395-3.09865-4.6037-.760767-1.7642-1.14163333-3.6492-1.1426-5.655 0-2.0058.380867-3.8908 1.1426-5.655.76173-1.76417 1.79462-3.29875 3.09865-4.60375 1.305-1.305 2.83958-2.33788 4.60375-3.09865 1.7642-.760767 3.6492-1.14163333 5.655-1.1426 2.0058 0 3.8908.380867 5.655 1.1426 1.7642.76173 3.2987 1.79462 4.6037 3.09865 1.305 1.305 2.3384 2.83958 3.1001 4.60375.7618 1.7642 1.1422 3.6492 1.1412 5.655 0 2.0058-.3809 3.8908-1.1426 5.655s-1.7946 3.2987-3.0987 4.6037c-1.305 1.305-2.8395 2.3384-4.6037 3.1001-1.7642.7618-3.6492 1.1422-5.655 1.1412z" fill="#fffffa"/></svg>