<svg fill="none" height="49" viewBox="0 0 51 49" width="51" xmlns="http://www.w3.org/2000/svg"><g fill="#ee3935"><path d="m44.625 3.1875c.8454 0 1.6561.33582 2.2539.9336.5978.59777.9336 1.40852.9336 2.2539v25.5c0 .8454-.3358 1.6561-.9336 2.2539s-1.4085.9336-2.2539.9336h-7.9688c-.9896 0-1.9657.2304-2.8509.673s-1.6552 1.0853-2.2491 1.877l-6.0562 8.0739-6.0562-8.0739c-.5939-.7917-1.3639-1.4344-2.2491-1.877s-1.8613-.673-2.8509-.673h-7.9688c-.84538 0-1.65613-.3358-2.2539-.9336-.59778-.5978-.9336-1.4085-.9336-2.2539v-25.5c0-.84538.33582-1.65613.9336-2.2539.59777-.59778 1.40852-.9336 2.2539-.9336zm-38.25-3.1875c-1.69076 0-3.31226.67165-4.50781 1.86719-1.19554 1.19555-1.86719 2.81705-1.86719 4.50781v25.5c0 1.6908.67165 3.3123 1.86719 4.5078 1.19555 1.1956 2.81705 1.8672 4.50781 1.8672h7.9688c.4948 0 .9828.1152 1.4254.3365s.8276.5426 1.1246.9385l6.0562 8.0739c.2969.3959.6819.7172 1.1245.9385s.9307.3365 1.4255.3365.9829-.1152 1.4255-.3365.8276-.5426 1.1245-.9385l6.0563-8.0739c.2969-.3959.6819-.7172 1.1245-.9385s.9306-.3365 1.4254-.3365h7.9688c1.6908 0 3.3123-.6716 4.5078-1.8672 1.1956-1.1955 1.8672-2.817 1.8672-4.5078v-25.5c0-1.69076-.6716-3.31226-1.8672-4.50781-1.1955-1.19554-2.817-1.86719-4.5078-1.86719z"/><path d="m22.5229 15.172c-.6209-.967-1.5388-1.7062-2.6159-2.1068-1.0771-.4005-2.255-.4406-3.3568-.1143-1.1019.3263-2.068 1.0014-2.7533 1.9238-.6852.9225-1.0526 2.0424-1.0468 3.1915.0005.9516.2566 1.8856.7415 2.7044.4849.8187 1.1807 1.4923 2.0149 1.9502.8341.458 1.7759.6835 2.727.6531s1.8766-.3157 2.6798-.826c-.4176 1.2399-1.1954 2.5627-2.4767 3.8887-.2452.2536-.3796.5942-.3736.9469s.1518.6886.4054.9337c.2537.2452.5943.3796.947.3736.3526-.006.6885-.1518.9337-.4054 4.7366-4.9088 4.1214-10.2447 2.1738-13.107zm12.75 0c-.6209-.967-1.5388-1.7062-2.6159-2.1068-1.0771-.4005-2.255-.4406-3.3568-.1143-1.1019.3263-2.068 1.0014-2.7533 1.9238-.6852.9225-1.0526 2.0424-1.0468 3.1915.0005.9516.2566 1.8856.7415 2.7044.4849.8187 1.1807 1.4923 2.0149 1.9502.8341.458 1.7759.6835 2.727.6531s1.8766-.3157 2.6798-.826c-.4176 1.2399-1.1954 2.5627-2.4767 3.8887-.2452.2536-.3796.5942-.3736.9469s.1518.6886.4054.9337c.2537.2452.5943.3796.947.3736.3526-.006.6885-.1518.9337-.4054 4.7366-4.9088 4.1214-10.2447 2.1738-13.107z"/></g></svg>