<svg fill="none" height="22" viewBox="0 0 156 22" width="156" xmlns="http://www.w3.org/2000/svg"><g fill="#f2994a"><path d="m11.1423 17.8214-5.40139 3.2521c-.23861.1518-.48807.2168-.74838.1951-.26031-.0216-.48808-.1084-.68331-.2601-.19523-.1518-.34707-.3417-.45553-.5698s-.13016-.4826-.06508-.7636l1.43169-6.1464-4.783145-4.13017c-.216923-.19513-.352283-.41757-.4060798-.66733s-.03774461-.49345.0481568-.73107c.086769-.23849.216923-.43361.390461-.58538.173538-.15176.412153-.24932.715847-.29268l6.31245-.55286 2.44038-5.788709c.10843-.260167.27683-.455292.50503-.585376.2282-.1300832.4611-.195125.6989-.195125.2386 0 .4716.0650418.6989.195125.2273.130084.3957.325209.505.585376l2.4404 5.788709 6.3124.55286c.3037.04336.5423.14092.7159.29268.1735.15177.3037.34689.3904.58538.0868.23849.1033.48261.0495.73237s-.1896.47177-.4074.66603l-4.7831 4.13017 1.4317 6.1464c.065.2819.0434.5368-.0651.7649s-.2603.4176-.4555.5685c-.1953.1517-.423.2385-.6834.2601-.2603.0217-.5097-.0433-.7483-.1951z"/><path d="m44.571 17.8214-5.4014 3.2521c-.2386.1518-.4881.2168-.7484.1951-.2603-.0216-.488-.1084-.6833-.2601-.1952-.1518-.347-.3417-.4555-.5698s-.1302-.4826-.0651-.7636l1.4317-6.1464-4.7831-4.13017c-.217-.19513-.3523-.41757-.4061-.66733s-.0378-.49345.0481-.73107c.0868-.23849.217-.43361.3905-.58538.1735-.15176.4122-.24932.7158-.29268l6.3125-.55286 2.4404-5.788709c.1084-.260167.2768-.455292.505-.585376.2282-.1300832.4612-.195125.6989-.195125.2386 0 .4716.0650418.6989.195125.2274.130084.3957.325209.505.585376l2.4404 5.788709 6.3125.55286c.3036.04336.5423.14092.7158.29268.1735.15177.3037.34689.3905.58538.0867.23849.1032.48261.0494.73237s-.1896.47177-.4074.66603l-4.7831 4.13017 1.4317 6.1464c.0651.2819.0434.5368-.0651.7649s-.2603.4176-.4555.5685c-.1953.1517-.423.2385-.6833.2601-.2603.0217-.5098-.0433-.7484-.1951z"/><path d="m78.0007 17.8214-5.4014 3.2521c-.2386.1518-.4881.2168-.7484.1951-.2603-.0216-.488-.1084-.6833-.2601-.1952-.1518-.3471-.3417-.4555-.5698-.1085-.2281-.1302-.4826-.0651-.7636l1.4317-6.1464-4.7831-4.13017c-.217-.19513-.3523-.41757-.4061-.66733s-.0378-.49345.0481-.73107c.0868-.23849.217-.43361.3905-.58538.1735-.15176.4121-.24932.7158-.29268l6.3125-.55286 2.4404-5.788709c.1084-.260167.2768-.455292.505-.585376.2282-.1300832.4611-.195125.6989-.195125.2386 0 .4716.0650418.6989.195125.2273.130084.3957.325209.505.585376l2.4404 5.788709 6.3124.55286c.3037.04336.5423.14092.7159.29268.1735.15177.3037.34689.3904.58538.0868.23849.1033.48261.0495.73237s-.1896.47177-.4074.66603l-4.7831 4.13017 1.4317 6.1464c.065.2819.0434.5368-.0651.7649s-.2603.4176-.4555.5685c-.1953.1517-.423.2385-.6834.2601-.2603.0217-.5097-.0433-.7483-.1951z"/><path d="m111.429 17.8214-5.401 3.2521c-.239.1518-.488.2168-.748.1951-.261-.0216-.488-.1084-.684-.2601-.195-.1518-.347-.3417-.455-.5698-.109-.2281-.13-.4826-.065-.7636l1.431-6.1464-4.783-4.13017c-.217-.19513-.352-.41757-.406-.66733s-.038-.49345.048-.73107c.087-.23849.217-.43361.391-.58538.173-.15176.412-.24932.716-.29268l6.312-.55286 2.44-5.788709c.109-.260167.277-.455292.505-.585376.229-.1300832.462-.195125.699-.195125.239 0 .472.0650418.699.195125.228.130084.396.325209.505.585376l2.441 5.788709 6.312.55286c.304.04336.542.14092.716.29268.174.15177.304.34689.39.58538.087.23849.104.48261.05.73237s-.19.47177-.407.66603l-4.784 4.13017 1.432 6.1464c.065.2819.043.5368-.065.7649s-.26.4176-.456.5685c-.195.1517-.423.2385-.683.2601-.26.0217-.51-.0433-.748-.1951z"/><path d="m144.855 17.8214-5.401 3.2521c-.239.1518-.488.2168-.749.1951-.26-.0216-.488-.1084-.683-.2601-.195-.1518-.347-.3417-.455-.5698-.109-.2281-.131-.4826-.065-.7636l1.431-6.1464-4.783-4.13017c-.217-.19513-.352-.41757-.406-.66733s-.038-.49345.048-.73107c.087-.23849.217-.43361.391-.58538.173-.15176.412-.24932.715-.29268l6.313-.55286 2.44-5.788709c.109-.260167.277-.455292.505-.585376.228-.1300832.461-.195125.699-.195125.239 0 .472.0650418.699.195125.227.130084.396.325209.505.585376l2.44 5.788709 6.313.55286c.304.04336.542.14092.716.29268.173.15177.303.34689.39.58538s.103.48261.05.73237c-.054.24976-.19.47177-.408.66603l-4.783 4.13017 1.432 6.1464c.065.2819.043.5368-.065.7649-.109.2281-.261.4176-.456.5685-.195.1517-.423.2385-.683.2601-.26.0217-.51-.0433-.748-.1951z"/></g></svg>